# xmcd
#
# Track frame offsets:
#	150
#	15723
#	36136
#	52618
#	69629
#	87618
#	105620
#
# Disc length: 1694 seconds
#
# Revision: 2
# Processed by: cddbd v1.5.2PL0 Copyright (c) Steve Scherf et al.
# Submitted via: audiograbber 1.83.01
#
DISCID=52069c07
DTITLE=Ana Popovic - Trilogy - Midnight - Vol. 3
DYEAR=2016
DGENRE=Blues
TTITLE0=New Coat of Paint
TTITLE1=Waiting on You
TTITLE2=In a Sentimental Mood
TTITLE3=Old Country
TTITLE4=Waiting on You (Double-Time Swing)
TTITLE5=Heaven's Crying Aka: Song for the Next Generation
TTITLE6=You Don't Know What Love Is
EXTD=
EXTT0=
EXTT1=
EXTT2=
EXTT3=
EXTT4=
EXTT5=
EXTT6=
PLAYORDER=
